<svg xmlns="http://www.w3.org/2000/svg" viewBox="0 0 1200 360" role="img" aria-labelledby="title"><title id="title">Receipts trust boundary architecture</title><rect width="1200" height="360" rx="28" fill="#f8faf9"/>
  <defs><marker id="arrow" markerWidth="12" markerHeight="12" refX="10" refY="6" orient="auto"><path d="M0 0 12 6 0 12z" fill="#315d53"/></marker></defs>
  <text x="56" y="56" fill="#60716b" font-family="ui-monospace, monospace" font-size="16" letter-spacing="2">RECEIPTS · EVIDENCE PIPELINE</text>
  <g font-family="ui-monospace, monospace" text-anchor="middle"><rect x="56" y="128" width="176" height="116" rx="16" fill="#e8eef0" stroke="#7b9299" stroke-width="2"/><text x="144" y="172" font-size="28">◈</text><text x="144" y="210" fill="#21383a" font-size="16">AGENT</text><text x="144" y="232" fill="#576f73" font-size="13">transcript</text>
  <rect x="302" y="128" width="208" height="116" rx="16" fill="#e7f3ee" stroke="#0b6b4f" stroke-width="2"/><text x="406" y="170" font-size="28">◎</text><text x="406" y="210" fill="#063b2c" font-size="16">CODEX</text><text x="406" y="232" fill="#286953" font-size="13">extracts claims</text>
  <rect x="580" y="104" width="248" height="164" rx="18" fill="#fff3c8" stroke="#c58b00" stroke-width="4"/><text x="704" y="157" fill="#725400" font-size="15" letter-spacing="2">TRUST BOUNDARY</text><text x="704" y="192" fill="#4c3900" font-family="Georgia, serif" font-size="24">AI stops here</text><text x="704" y="224" fill="#725400" font-size="13">claims become executable proof</text>
  <rect x="898" y="128" width="246" height="116" rx="16" fill="#e7f3ee" stroke="#0b6b4f" stroke-width="2"/><text x="1021" y="170" font-size="28">⌘</text><text x="1021" y="210" fill="#063b2c" font-size="16">LOCAL CHECKS</text><text x="1021" y="232" fill="#286953" font-size="13">terminal + Git diff → receipt</text></g>
  <path d="M232 186h58M510 186h58M828 186h58" stroke="#315d53" stroke-width="5" marker-end="url(#arrow)"/>
</svg>
